<svg width="517" height="313" viewBox="0 0 517 313" fill="none" xmlns="http://www.w3.org/2000/svg"><g clip-path="url(#clip0)"><path d="M301.596 169.133l2.89-2.304 121.776 69.875-2.312 2.634-122.354-70.205zm-53.663 31.276l2.889-2.305 121.776 69.876-2.311 2.634-122.354-70.205zm98.989-67.407l2.889-2.304 121.776 69.875-2.311 2.634-122.354-70.205z" fill="#0078D4"/><path d="M327.933 31.357l14.2-6.502c1.652-.987 3.798-1.152 6.192-.329l-14.2 6.502c-2.394-.823-4.541-.659-6.192.33z" fill="#84ECFD"/><path d="M362.856 10.452c10.237 5.926 19.154 17.12 24.272 29.218 1.404.411 2.89 1.07 4.459 1.975 10.567 6.09 19.154 20.905 19.154 33.004l3.55 2.058c6.852 3.95 12.466 13.58 12.466 21.563v.74c0 7.902-5.614 11.112-12.549 7.161l-77.441-44.526c-6.853-3.95-12.467-13.58-12.467-21.481v-.74c0-6.914 4.211-10.207 9.825-8.314-.083-1.399-.165-2.798-.165-4.115.082-18.353 12.962-25.678 28.896-16.543z" fill="#2195DC"/><path d="M344.611 7.407c-.743.247-1.569.658-2.229 1.07l2.229-1.07z" fill="#32B0E7"/><path d="M428.491 70.205l-3.55-2.058-2.724 1.234 2.724-1.234c0-12.099-8.503-26.913-19.154-33.004-1.568-.905-3.054-1.563-4.458-1.975-5.119-12.099-14.035-23.374-24.273-29.218-8.008-4.609-15.273-5.02-20.474-1.975L344.61 7.407c4.954-1.81 11.311-.988 18.246 3.045 10.238 5.926 19.154 17.12 24.273 29.218 1.403.411 2.889 1.07 4.458 1.975 10.568 6.09 19.154 20.905 19.154 33.004l3.55 2.058c6.852 3.95 12.466 13.58 12.466 21.563v.74c0 3.951-1.403 6.667-3.632 7.984l14.2-6.502c2.229-1.317 3.633-4.033 3.633-7.983v-.74c0-7.984-5.614-17.614-12.467-21.564z" fill="#32B0E7"/><path opacity=".5" d="M8.839 189.133L233.154 59.917l216.968 123.949-224.316 129.216L8.839 189.133z" fill="url(#paint0_linear)"/><path opacity=".2" d="M228.2 42.634l226.297 130.204-14.53 8.313-213.17 122.796L15.031 182.056.5 173.661 228.2 42.634z" fill="#505055"/><path d="M.5 173.66v3.128l226.297 130.204 227.7-131.027v-3.622L228.2 59.341.583 173.166l-.083.494z" fill="#505055"/><path d="M.5 173.249l227.7-131.11 226.297 130.204-227.7 131.11L.5 173.249z" fill="#505055"/><path d="M228.613 267.816l-1.073.576L47.229 164.936l.99-.576 180.394 103.456zm19.814-11.441l-1.073.494-179.65-102.961 1.072-.576 179.651 103.043zm19.732-11.44l-.99.494-179.65-102.961 1.072-.576L268.16 244.935zm19.814-11.522l-1.073.576-179.568-103.044.991-.493 179.65 102.961zm19.815-11.44l-1.074.576-179.65-103.044 1.073-.576 179.651 103.044zm19.814-11.441l-1.073.494-179.651-102.962 1.074-.576 179.65 103.044zm19.733-11.44l-.991.494L166.693 96.542l1.074-.494 179.568 103.044zm19.814-11.522l-1.074.576L186.507 85.102l.991-.494L367.149 187.57zm19.814-11.44l-1.073.576L206.239 73.662l1.074-.576 179.65 103.044zm19.814-11.441l-1.073.494L226.053 62.222l1.073-.577L406.777 164.69z" fill="#78787D"/><path d="M218.706 274.07l.991.576 5.366-3.128-.99-.576-5.367 3.128zm-19.897-11.358l.99.576 5.449-3.128-.99-.576-5.449 3.128zm-19.897-11.44l.991.576 5.366-3.127-.991-.576-5.366 3.127zm-19.979-11.358l.99.576 5.449-3.127-.99-.576-5.449 3.127zm-19.815-11.44l.991.576 5.366-3.128-.99-.576-5.367 3.128zm-19.979-11.358l.99.576 5.449-3.127-.99-.576-5.449 3.127zm-19.897-11.44l.99.576 5.449-3.128-.99-.576-5.45 3.128z" fill="#BCBCBC"/><path d="M79.344 194.318l.991.576 5.449-3.127-.99-.577-5.45 3.128z" fill="#505055"/><path d="M59.448 182.878l.99.576 5.45-3.127-.991-.577-5.45 3.128z" fill="#BCBCBC"/><path d="M39.55 171.52l.991.576 5.449-3.127-.99-.576-5.45 3.127z" fill="#505055"/><path d="M49.623 173.742l.33.164 2.395-1.316-.33-.165-2.395 1.317zm6.522 3.704l.33.247 2.395-1.399-.33-.165-2.395 1.317zm13.375 7.736l.33.165 2.395-1.317-.33-.247-2.395 1.399z" fill="#BCBCBC"/><path d="M76.043 188.886l.33.165 2.394-1.317-.33-.247-2.394 1.399zM89.5 196.54l.33.247 2.394-1.399-.33-.165-2.395 1.317zm6.522 3.786l.33.165 2.311-1.317-.33-.247-2.311 1.399z" fill="#505055"/><path d="M109.314 207.98l.33.165 2.394-1.317-.33-.247-2.394 1.399zm6.522 3.704l.331.164 2.394-1.316-.33-.247-2.395 1.399zm13.457 7.654l.331.165 2.311-1.317-.33-.165-2.312 1.317zm6.523 3.704l.33.247 2.312-1.4-.33-.164-2.312 1.317zm13.292 7.654l.33.247 2.394-1.399-.33-.165-2.394 1.317zm6.522 3.786l.33.165 2.394-1.317-.33-.247-2.394 1.399zm13.457 7.654l.33.165 2.312-1.317-.33-.165-2.312 1.317zm6.523 3.704l.33.247 2.312-1.399-.33-.165-2.312 1.317zm13.375 7.737l.33.164 2.394-1.317-.33-.247-2.394 1.4zm6.521 3.703l.331.164 2.311-1.316-.33-.165-2.312 1.317zm13.293 7.654l.331.165 2.394-1.317-.33-.247-2.395 1.399zm6.522 3.704l.331.164 2.394-1.317-.413-.164-2.312 1.317z" fill="#BCBCBC"/><path d="M226.384 267.486l1.074.576 178.494-102.303-1.073-.576-178.495 102.303zm-19.732-11.44l.991.493 178.494-102.303-.991-.494-178.494 102.304zm-19.814-11.441l1.073.494 178.412-102.303-.99-.494-178.495 102.303zm-19.815-11.522l1.074.576 178.495-102.303-1.074-.576-178.495 102.303zm-19.814-11.44l1.074.577 178.494-102.304-1.073-.576-178.495 102.303zm-19.732-11.441l.991.494 178.495-102.303-.991-.494-178.495 102.303zm-19.814-11.44l1.073.494L287.23 96.953l-1.073-.576-178.494 102.385zM87.848 187.24l1.073.576L267.416 85.513l-1.073-.576L87.848 187.24zM68.034 175.8l1.073.576L247.603 74.073l-1.073-.576L68.034 175.8zm-19.979-11.358l.99.658L227.788 62.55l-.991-.493L48.055 164.442z" fill="#78787D"/><path d="M348.655 251.849c1.982 1.152 1.982 3.045 0 4.197-1.981 1.152-5.201 1.152-7.183 0-1.981-1.152-1.981-3.045 0-4.197 1.982-1.153 5.202-1.153 7.183 0z" fill="#0078D4"/><path d="M347.335 252.589c1.238.741 1.238 1.893 0 2.552-1.239.74-3.22.74-4.458 0-1.239-.741-1.239-1.893 0-2.552 1.238-.658 3.219-.658 4.458 0z" fill="#F4F4F4"/><path d="M401.494 220.244c1.981 1.152 1.981 3.045 0 4.197-1.982 1.153-5.202 1.153-7.183 0-1.982-1.152-1.982-3.045 0-4.197 1.981-1.152 5.201-1.152 7.183 0z" fill="#0078D4"/><path d="M400.09 221.067c1.239.741 1.239 1.893 0 2.551-1.238.741-3.22.741-4.458 0-1.238-.74-1.238-1.893 0-2.551 1.238-.741 3.22-.741 4.458 0z" fill="#F4F4F4"/><path d="M454.25 188.557c1.981 1.152 1.981 3.045 0 4.198-1.982 1.152-5.201 1.152-7.183 0-1.981-1.153-1.981-3.046 0-4.198 1.982-1.152 5.201-1.152 7.183 0z" fill="#0078D4"/><path d="M452.929 189.298c1.238.74 1.238 1.893 0 2.551-1.238.741-3.22.741-4.458 0-1.239-.741-1.239-1.893 0-2.551 1.238-.659 3.22-.659 4.458 0z" fill="#F4F4F4"/><path d="M400.834 284.934l-1.238-.329-1.404.823.578.741-.66.411-2.23-2.798.661-.412 4.871 1.317-.578.247zm-2.972.082l1.073-.658-1.899-.576c-.082 0-.165-.082-.247-.082.082.082.165.082.165.164l.908 1.152zm-3.137-.082l-1.074.576 3.138 1.811-.661.329-3.054-1.811-.991.658-.496-.329 2.642-1.481.496.247zm-.578 3.869l-1.239-.33-1.403.823.578.741-.661.412-2.229-2.799.661-.411 4.871 1.317-.578.247zm-2.972.164l1.073-.658-1.899-.576c-.082 0-.165-.083-.247-.083.082.083.165.083.165.165l.908 1.152zm-1.322 1.728c0 .412-.33.741-.991 1.153l-.99.576-3.55-2.058.99-.576c1.321-.741 2.56-.823 3.716-.165.66.33.908.659.825 1.07zm-1.816 1.07l.495-.247c.413-.247.661-.493.661-.74s-.248-.494-.661-.741c-.825-.494-1.651-.494-2.559 0l-.495.247 2.559 1.481zm15.934-8.971c-.082.247-.247.494-.66.659l-1.156.658-3.55-2.058 1.156-.658c.33-.165.66-.329 1.073-.329.33 0 .661 0 .908.164.165.083.33.247.33.412 0 .164.001.329-.165.494.248-.165.578-.165.826-.165.33 0 .578.082.826.247.33.082.495.329.412.576zm-1.651.741l.496-.329c.247-.165.33-.247.33-.412 0-.164-.083-.247-.248-.329-.33-.247-.826-.165-1.321.164l-.413.247 1.156.659zm-1.568-.906l.412-.246c.248-.083.331-.247.331-.33 0-.164-.083-.247-.248-.329-.33-.164-.661-.164-1.073.082l-.413.247.991.576zm7.017-1.728l-1.238-.329-1.403.823.577.741-.66.411-2.229-2.798.66-.412 4.871 1.317-.578.247zm-2.889.083l1.073-.659-1.899-.576c-.082 0-.165-.082-.247-.082.082.082.165.082.165.164l.908 1.153zm9.329-3.786l-1.982 1.152-3.632-2.058 1.899-1.07.578.247-1.321.823.99.576 1.239-.74.495.329-1.238.658 1.073.576 1.404-.74.495.247zm-3.881 1.152c.165.082.33.247.33.329.082.082.082.247 0 .329-.083.082-.165.247-.248.329a1.25 1.25 0 01-.495.329c-.083 0-.165.083-.248.083-.082.082-.165.082-.33.164-.083.083-.248.083-.33.083-.083 0-.165.082-.248.082l-.578-.329h.33c.083 0 .248-.083.331-.083.082 0 .247-.082.33-.082.082 0 .165-.082.248-.082.247-.165.412-.247.412-.412 0-.082 0-.247-.165-.329-.082-.082-.165-.082-.247-.082h-.331c-.165 0-.247 0-.412.082-.166 0-.331.082-.496.082-.165 0-.33.083-.578.083h-.495c-.165 0-.33 0-.413-.083a.635.635 0 01-.413-.164c-.165-.082-.247-.247-.33-.329a.25.25 0 010-.33c.083-.082.083-.247.248-.329.082-.082.247-.247.413-.329.33-.247.66-.329.908-.412l.578.33c-.331 0-.661.164-.991.329-.083.082-.165.082-.248.164l-.165.165c0 .082-.082.082 0 .165 0 .082.083.082.165.164.083.083.165.083.248.083h.33c.083 0 .248 0 .413-.083.165 0 .33-.082.495-.082.165 0 .413-.082.578-.082h.496c.165 0 .33 0 .495.082a.63.63 0 01.413.165zm7.844-3.951c.082.33-.083.577-.413.824a1.841 1.841 0 01-1.321.246 4.944 4.944 0 01-1.651-.576c-.661-.329-.991-.74-1.074-.987-.082-.33.083-.577.413-.823.743-.412 1.817-.33 2.972.411.578.329.991.576 1.074.905zm-2.89.165c.908.494 1.569.659 1.981.412.413-.247.166-.659-.743-1.153-.908-.576-1.651-.658-2.064-.493-.33.246-.082.658.826 1.234zm5.614-1.235l-.578.33-2.972-1.729c0 .082-.082.165-.165.329-.083.083-.165.247-.248.33l-.495-.247c.083-.083.165-.165.165-.247.083-.083.083-.165.165-.247.083-.082.083-.165.083-.247 0-.082.082-.165.082-.247l.248-.165 3.715 2.14z" fill="#505055"/><path d="M348.325 268.72v-4.691c0 .658.413 1.235 1.239 1.728v4.692c-.826-.494-1.239-1.153-1.239-1.729zm66.379-4.197v4.692c0 .576-.413 1.234-1.239 1.646v-4.692c.826-.411 1.239-1.07 1.239-1.646z" fill="#393940"/><path d="M413.465 266.169v4.692l-28.566 16.543.083-4.692 28.483-16.543zm-34.427 16.543v4.691l-29.474-16.954v-4.691l29.474 16.954z" fill="#323237"/><path d="M413.466 262.795c1.651.905 1.651 2.469 0 3.374L384.9 282.712c-1.651.906-4.21.906-5.862 0l-29.473-16.954c-1.652-.906-1.652-2.469 0-3.375l28.565-16.543c1.651-.905 4.293-.905 5.862 0l29.474 16.955z" fill="#505055"/><path d="M384.982 282.712v4.691c-1.651.906-4.211.906-5.862 0v-4.691c1.569.905 4.211.988 5.862 0z" fill="#393940"/><path opacity=".25" d="M401.329 257.198c7.843 4.527 7.843 11.769.083 16.296-7.761 4.527-20.393 4.527-28.236 0s-7.843-11.769-.083-16.296c7.844-4.527 20.475-4.527 28.236 0z" fill="url(#paint1_linear)"/><path d="M396.294 262.136l-.083 2.716c0 2.14-1.403 4.362-4.293 6.008-5.779 3.375-15.108 3.375-20.97 0-2.89-1.646-4.376-3.868-4.376-6.09l.083-2.716c0 2.222 1.486 4.444 4.375 6.09 5.78 3.375 15.191 3.375 20.971 0 2.889-1.728 4.293-3.868 4.293-6.008z" fill="#323237"/><path d="M396.872 234.976l-.083 28.642c0 2.222-1.486 4.527-4.458 6.255-6.027 3.457-15.769 3.457-21.796 0-3.055-1.728-4.541-4.033-4.541-6.337l.083-28.642c0 2.305 1.486 4.609 4.54 6.337 6.027 3.457 15.769 3.457 21.796 0 2.973-1.728 4.459-3.95 4.459-6.255z" fill="url(#paint2_linear)"/><path d="M397.036 234.318l-.083 2.881c0 2.304-1.486 4.526-4.458 6.255-6.027 3.456-15.769 3.456-21.879 0-3.054-1.729-4.54-4.033-4.54-6.338l.082-2.88c0 2.304 1.486 4.609 4.541 6.337 6.027 3.457 15.852 3.457 21.879 0 2.889-1.728 4.375-3.951 4.458-6.255z" fill="#CDCDD0"/><path d="M392.496 228.556c6.027 3.457 6.109 9.136.082 12.675-6.027 3.457-15.851 3.457-21.878 0-6.027-3.457-6.11-9.135-.083-12.592 5.945-3.539 15.769-3.539 21.879-.083z" fill="#fff"/><path d="M389.854 230.121c4.623 2.633 4.623 6.995.082 9.629-4.623 2.634-12.054 2.634-16.677 0-4.623-2.634-4.623-6.996-.082-9.629 4.623-2.717 12.053-2.717 16.677 0z" fill="#CDCDD0"/><path d="M373.177 231.437c4.623-2.634 12.054-2.634 16.677 0 1.981 1.152 3.137 2.634 3.385 4.115.33-1.975-.826-4.032-3.385-5.514-4.623-2.634-12.136-2.634-16.677 0-2.559 1.482-3.715 3.539-3.385 5.514.248-1.481 1.403-2.963 3.385-4.115z" fill="#78787D"/><path d="M490.742 225.841l-1.074.576 3.055 1.729-.578.329-3.054-1.729-.991.576-.496-.246 2.642-1.564.496.329zm-.661 3.869l-1.238-.33-1.404.823.578.741-.66.412-2.23-2.799.661-.411 4.871 1.317-.578.247zm-2.89.082l1.074-.659-1.899-.493c-.083 0-.165-.083-.248-.083.083.083.165.083.165.165l.908 1.07zm-1.321 1.81c0 .412-.33.823-.99 1.152l-.991.576-3.55-2.057.991-.576c1.321-.741 2.559-.823 3.715-.165.66.247.908.659.825 1.07zm-1.816 1.07l.495-.247c.413-.247.661-.494.661-.741s-.248-.493-.661-.74c-.825-.494-1.651-.494-2.559 0l-.495.247 2.559 1.481zm15.934-8.971c-.083.247-.248.494-.66.658l-1.156.659-3.55-2.058 1.155-.658c.331-.165.661-.329 1.074-.329.33 0 .66 0 .908.164.165.083.33.247.33.412 0 .164 0 .329-.165.494.248-.083.578-.165.826-.165.33 0 .577.082.825.247.33.082.413.329.413.576zm-1.651.741l.495-.329c.248-.165.33-.247.33-.412 0-.165-.082-.247-.247-.329-.331-.247-.826-.165-1.321.164l-.413.247 1.156.659zm-1.651-.988l.412-.247c.165-.082.331-.247.331-.329 0-.082-.083-.247-.248-.329-.33-.165-.661-.165-1.073.082l-.413.247.991.576zm.164 2.387l-1.238-.329-1.403.823.578.74-.661.412-2.229-2.798.66-.412 4.871 1.317-.578.247zm-2.972.082l1.074-.658-1.899-.494c-.083 0-.165-.082-.248-.082.083.082.165.082.165.164l.908 1.07zm12.467-6.666c.165.082.33.247.33.329a.248.248 0 010 .329c-.082.083-.165.247-.247.329-.165.083-.248.247-.496.33-.082 0-.165.082-.247.082-.083.082-.165.082-.33.165-.083 0-.248.082-.331.082-.082 0-.165.082-.247.082l-.578-.329h.33c.083 0 .248-.082.33-.082.083 0 .248-.083.33-.083.083 0 .166-.082.248-.082.248-.165.413-.247.413-.411 0-.083 0-.247-.165-.33-.083-.082-.165-.082-.248-.082h-.33c-.083 0-.248 0-.413.082-.165 0-.33.083-.495.083-.165 0-.331.082-.496.082h-.495c-.165 0-.33 0-.413-.082a.635.635 0 01-.413-.165.646.646 0 01-.33-.329c-.082-.082-.082-.247 0-.329.083-.083.165-.247.248-.33.082-.082.248-.247.413-.329.412-.247.66-.329.908-.411l.578.329c-.331 0-.661.164-.991.329-.083.082-.165.082-.248.165l-.165.164v.165c0 .082.083.082.165.165.083.082.165.082.248.082h.33c.083 0 .248 0 .413-.082.165 0 .33-.083.495-.083.166 0 .413-.082.578-.082h.496c.165 0 .33 0 .495.082.083 0 .248.083.33.165zm-2.559 2.551l-1.238-.329-1.404.823.578.658-.66.412-2.229-2.799.66-.411 4.871 1.317-.578.329zm-2.972.082l1.073-.658-1.899-.494c-.082 0-.165-.082-.247-.082.082.082.165.082.165.164l.908 1.07zm9.412-3.785l-2.064 1.152-3.551-2.058 1.899-1.152.578.329-1.403.741 1.073.576 1.238-.658.496.247-1.239.74 1.074.576 1.403-.823.496.33zm6.687-3.869l-.578.33-2.972-1.729c0 .082-.083.165-.165.329-.083.083-.165.247-.248.33l-.495-.247c.082-.083.165-.165.165-.247.082-.083.082-.165.165-.247.082-.082.082-.165.082-.247 0-.082.083-.165.083-.247l.248-.165 3.715 2.14zm-2.725 1.07c.083.33-.082.576-.413.823-.33.247-.825.33-1.321.247a4.966 4.966 0 01-1.651-.576c-.66-.329-.991-.658-1.073-.987-.083-.33 0-.577.413-.823.743-.412 1.816-.33 2.972.411.578.247.991.576 1.073.905zm-2.889.083c.908.493 1.568.658 1.981.411.413-.247.165-.658-.743-1.152-.908-.576-1.651-.658-1.981-.494-.413.329-.166.741.743 1.235z" fill="#505055"/><path d="M444.342 209.545v-4.692c0 .659.413 1.235 1.239 1.729v4.691c-.826-.412-1.239-1.07-1.239-1.728z" fill="#BCBCBC"/><path d="M510.72 205.347v4.691c0 .576-.413 1.235-1.238 1.646v-4.691c.825-.412 1.238-.988 1.238-1.646z" fill="#393940"/><path d="M509.482 207.076v4.691l-28.565 16.543.082-4.691 28.483-16.543zm-34.427 16.542v4.609l-29.474-16.954v-4.692l29.474 17.037z" fill="#323237"/><path d="M509.483 203.701c1.651.906 1.651 2.47 0 3.375l-28.484 16.543c-1.651.905-4.21.905-5.861 0l-29.557-17.037c-1.651-.905-1.651-2.469 0-3.374l28.566-16.543c1.651-.906 4.293-.906 5.862 0l29.474 17.036z" fill="#505055"/><path d="M480.999 223.619v4.691c-1.651.905-4.211.905-5.862 0v-4.691c1.569.905 4.211.905 5.862 0z" fill="#393940"/><path opacity=".25" d="M496.768 197.282c7.843 4.526 7.843 11.769.082 16.296-7.76 4.527-20.392 4.527-28.235 0s-7.843-11.77-.083-16.296c7.761-4.527 20.393-4.527 28.236 0z" fill="url(#paint3_linear)"/><path d="M492.31 202.96l-.083 2.716c0 2.14-1.403 4.363-4.293 6.009-5.779 3.374-15.108 3.374-20.97 0-2.89-1.646-4.376-3.869-4.376-6.091l.083-2.716c0 2.222 1.486 4.445 4.376 6.091 5.779 3.374 15.191 3.374 20.97 0 2.889-1.646 4.293-3.786 4.293-6.009z" fill="#323237"/><path d="M492.888 175.883l-.083 28.641c0 2.222-1.486 4.527-4.458 6.255-6.027 3.457-15.769 3.457-21.796 0-3.055-1.728-4.541-4.033-4.541-6.337l.083-28.642c0 2.305 1.486 4.609 4.541 6.338 6.026 3.456 15.769 3.456 21.796 0 2.972-1.729 4.458-4.033 4.458-6.255z" fill="url(#paint4_linear)"/><path d="M492.97 175.224l-.082 2.881c0 2.305-1.486 4.527-4.458 6.255-6.027 3.457-15.769 3.457-21.879 0-3.055-1.728-4.541-4.033-4.541-6.337l.083-2.881c0 2.305 1.486 4.609 4.541 6.337 6.027 3.457 15.851 3.457 21.878 0 2.972-1.728 4.458-4.032 4.458-6.255z" fill="#CDCDD0"/><path d="M488.433 169.463c6.027 3.457 6.109 9.136.082 12.675-6.027 3.457-15.851 3.457-21.878 0-6.027-3.457-6.11-9.136-.083-12.592 6.027-3.54 15.852-3.54 21.879-.083z" fill="#fff"/><path d="M485.87 170.945c4.623 2.633 4.623 6.995.083 9.629-4.624 2.634-12.054 2.634-16.678 0-4.623-2.634-4.623-6.996-.082-9.629 4.623-2.634 12.054-2.634 16.677 0z" fill="#CDCDD0"/><path d="M469.193 172.344c4.623-2.634 12.054-2.634 16.677 0 1.982 1.152 3.137 2.633 3.385 4.115.33-1.975-.825-4.033-3.385-5.514-4.623-2.634-12.136-2.634-16.677 0-2.559 1.481-3.715 3.539-3.385 5.514.248-1.482 1.404-2.963 3.385-4.115z" fill="#78787D"/><path d="M443.435 255.881l-.991.576 3.055 1.728-.578.412-3.055-1.811-1.073.576-.496-.247 2.642-1.563.496.329zm-.579 3.868l-1.238-.329-1.404.823.578.741-.66.411-2.229-2.798.66-.411 4.871 1.316-.578.247zm-2.972.083l1.073-.659-1.898-.576c-.083 0-.165-.082-.248-.082.083.082.165.082.165.164l.908 1.153zm-1.238 1.81c0 .412-.33.741-.991 1.153l-.991.576-3.55-2.058.991-.576c1.321-.741 2.559-.823 3.715-.165.578.247.826.659.826 1.07zm-1.899 1.07l.495-.247c.413-.247.661-.493.661-.74s-.248-.494-.661-.741c-.825-.494-1.651-.494-2.559 0l-.495.247 2.559 1.481zm12.797-6.831l-1.238-.329-1.404.823.578.74-.661.412-2.229-2.798.661-.412 4.871 1.317-.578.247zm-2.972.082l1.073-.658-1.899-.576c-.082 0-.165-.083-.248-.083.083.083.166.083.166.165l.908 1.152zm6.109-2.222c-.082.247-.247.494-.66.658l-1.156.659-3.55-2.058 1.156-.658c.33-.165.66-.33 1.073-.33.33 0 .66 0 .908.165.165.082.33.247.33.412 0 .164 0 .329-.165.493.248-.164.578-.164.826-.164.33 0 .578.082.825.247.331.082.496.329.413.576zm-1.651.741l.495-.33c.248-.164.331-.247.331-.411 0-.165-.083-.247-.248-.329-.33-.247-.826-.165-1.321.082l-.413.247 1.156.741zm-1.569-.988l.413-.247c.248-.082.33-.247.33-.329 0-.165-.082-.247-.247-.329-.33-.165-.661-.165-1.073.082l-.413.247.99.576zm20.145-9.218l-.578.33-2.972-1.729c0 .082-.082.165-.165.329-.083.083-.165.247-.248.33l-.495-.247c.083-.083.165-.165.165-.247.083-.083.083-.165.165-.247.083-.082.083-.165.083-.247 0-.082.082-.165.082-.247l.248-.165 3.715 2.14zm-2.725 1.07c.083.33-.083.577-.413.823-.413.247-.825.33-1.321.247a4.966 4.966 0 01-1.651-.576c-.66-.329-.991-.74-1.073-.987-.083-.33.082-.577.413-.823.743-.412 1.733-.33 2.972.411.66.247.99.576 1.073.905zm-2.807.083c.908.494 1.569.658 1.981.411.413-.247.166-.658-.743-1.152-.908-.576-1.651-.658-2.064-.494-.412.329-.165.741.826 1.235zm-1.156 2.716l-1.981 1.152-3.55-2.058 1.899-1.152.495.329-1.321.741.991.576 1.238-.658.496.247-1.239.74 1.073.577 1.404-.823.495.329zm-3.797 1.152c.165.082.33.247.33.329a.248.248 0 010 .329c-.083.082-.165.247-.248.329a1.26 1.26 0 01-.495.33c-.083 0-.165.082-.248.082-.082.082-.165.082-.33.164-.083.083-.248.083-.33.083-.083 0-.165.082-.248.082l-.578-.329h.33c.083 0 .248-.082.331-.082.082 0 .247-.083.33-.083.082 0 .165-.082.248-.082.247-.165.412-.247.412-.412.083-.082 0-.247-.165-.329-.082-.082-.165-.082-.247-.082h-.331c-.165 0-.247 0-.412.082-.166 0-.331.082-.496.082-.165 0-.33.083-.495.083h-.496c-.165 0-.33 0-.495-.083-.165 0-.248-.082-.413-.164-.165-.082-.247-.247-.33-.329a.25.25 0 010-.33c.083-.082.083-.246.248-.329.082-.082.247-.247.413-.329.33-.247.66-.329.908-.412l.578.33c-.331 0-.661.164-.991.329-.083.082-.165.082-.248.165l-.165.164c0 .082-.083.082 0 .165 0 .082.083.082.165.164.083.083.165.083.248.083h.33c.083 0 .248 0 .413-.083.165 0 .33-.082.495-.082.165 0 .413-.082.578-.082h.496c.165 0 .33 0 .495.082.083 0 .248.082.413.165zm-2.559 2.551l-1.238-.329-1.404.823.578.741-.66.411-2.23-2.798.661-.412 4.871 1.317-.578.247zm-2.972.082l1.073-.658-1.899-.576c-.082 0-.165-.082-.247-.082.082.082.165.082.165.164l.908 1.152z" fill="#505055"/><path d="M397.035 239.667v-4.691c0 .658.413 1.234 1.239 1.728v4.691c-.826-.494-1.239-1.152-1.239-1.728zm66.378-4.28v4.692c0 .576-.413 1.234-1.238 1.646v-4.692c.825-.411 1.238-.987 1.238-1.646z" fill="#393940"/><path d="M462.257 237.116l-.083 4.691-28.483 16.543v-4.691l28.566-16.543zm-34.427 16.543v4.691l-29.557-17.037.083-4.609 29.474 16.955z" fill="#323237"/><path d="M462.177 233.741c1.651.905 1.651 2.469 0 3.374l-28.566 16.543c-1.651.906-4.211.906-5.862 0l-29.474-16.954c-1.651-.905-1.651-2.469 0-3.375l28.566-16.543c1.651-.905 4.293-.905 5.862 0l29.474 16.955z" fill="#505055"/><path d="M433.692 253.659v4.691c-1.651.905-4.211.905-5.862 0v-4.691c1.569.905 4.211.905 5.862 0z" fill="#393940"/><path opacity=".25" d="M449.461 227.322c7.843 4.526 7.843 11.769.082 16.296-7.76 4.527-20.392 4.527-28.235 0s-7.843-11.77-.083-16.296c7.843-4.527 20.475-4.527 28.236 0z" fill="url(#paint5_linear)"/><path d="M445.003 233.001l-.082 2.716c0 2.139-1.404 4.362-4.293 6.008-5.78 3.374-15.109 3.374-20.971 0-2.889-1.646-4.375-3.869-4.375-6.091l.082-2.716c0 2.222 1.486 4.445 4.376 6.091 5.779 3.374 15.191 3.374 20.97 0 2.89-1.646 4.293-3.786 4.293-6.008z" fill="#323237"/><path d="M445.664 205.922l-.083 28.642c0 2.222-1.486 4.527-4.458 6.255-6.027 3.457-15.769 3.457-21.796 0-3.055-1.728-4.541-4.033-4.541-6.337l.083-28.642c0 2.305 1.486 4.609 4.541 6.337 6.026 3.457 15.769 3.457 21.796 0 2.972-1.728 4.458-4.032 4.458-6.255z" fill="url(#paint6_linear)"/><path d="M445.746 205.264l-.082 2.881c0 2.304-1.487 4.526-4.459 6.255-6.027 3.457-15.769 3.457-21.878 0-3.055-1.729-4.541-4.033-4.541-6.337l.083-2.881c0 2.304 1.486 4.609 4.54 6.337 6.027 3.457 15.852 3.457 21.879 0 2.972-1.728 4.458-4.033 4.458-6.255z" fill="#CDCDD0"/><path d="M441.207 199.503c6.026 3.457 6.109 9.136.082 12.675-6.027 3.456-15.851 3.456-21.878 0-6.027-3.457-6.11-9.136-.083-12.593 6.027-3.539 15.769-3.539 21.879-.082z" fill="#fff"/><path d="M438.646 200.985c4.623 2.633 4.623 6.995.082 9.629-4.623 2.634-12.053 2.634-16.677 0-4.623-2.634-4.623-6.996-.082-9.629 4.54-2.634 12.054-2.634 16.677 0z" fill="#CDCDD0"/><path d="M421.887 202.384c4.623-2.634 12.054-2.634 16.677 0 1.981 1.152 3.137 2.633 3.385 4.115.33-1.975-.826-4.033-3.385-5.514-4.623-2.634-12.136-2.634-16.677 0-2.559 1.481-3.715 3.539-3.385 5.514.33-1.482 1.403-2.963 3.385-4.115z" fill="#78787D"/><path opacity=".35" d="M289.543 125.348l21.795-12.181a1.234 1.234 0 011.074 0l30.464 17.613a1.082 1.082 0 010 1.893l-21.796 12.181c-.33.165-.743.165-1.073 0l-30.547-17.613c-.743-.411-.743-1.481.083-1.893z" fill="url(#paint7_linear)"/><path opacity=".35" d="M320.089 216.705l-9.659-5.35a.53.53 0 00-.496 0l-13.457 7.736c-.33.165-.33.659 0 .823l9.66 5.35c.165.082.33.082.495 0l13.457-7.736c.331-.165.331-.659 0-.823z" fill="url(#paint8_linear)"/><path opacity=".35" d="M343.372 202.302l-9.66-5.35a.529.529 0 00-.495 0l-13.458 7.736c-.33.165-.33.659 0 .823l9.66 5.35c.165.082.33.082.495 0l13.458-7.736c.33-.165.33-.659 0-.823z" fill="url(#paint9_linear)"/><path opacity=".35" d="M318.439 153.825l-24.108-13.415c-.413-.247-.825-.247-1.238 0l-33.685 19.423a1.235 1.235 0 000 2.14l24.108 13.415c.413.247.825.247 1.238 0l33.685-19.423a1.235 1.235 0 000-2.14z" fill="url(#paint10_linear)"/><path opacity=".35" d="M357.985 138.023l-24.107-13.004a1.613 1.613 0 00-1.239 0l-5.283 3.539c-1.404.988-1.321 3.128.165 3.951l22.043 11.851c.743.412 1.651.329 2.394-.164l6.027-4.116c.826-.493.743-1.646 0-2.057z" fill="url(#paint11_linear)"/><path opacity=".35" d="M389.935 207.24l-24.107-13.004a1.61 1.61 0 00-1.238 0l-2.147-1.153c-1.404.988-1.321 3.128.165 3.951l22.456 13.662c.743.412 1.652.33 2.395-.164l2.476-1.235c.826-.494.826-1.646 0-2.057z" fill="url(#paint12_linear)"/><path opacity=".35" d="M410.08 193.824l-24.108-13.004a1.62 1.62 0 00-1.238 0l-2.146-1.152c-1.404.988-1.321 3.128.165 3.951l22.456 13.662c.743.412 1.651.329 2.394-.164l2.477-1.235c.826-.494.826-1.646 0-2.058z" fill="url(#paint13_linear)"/><path opacity=".35" d="M429.812 182.714l-24.108-13.004a1.61 1.61 0 00-1.238 0l-2.147-1.153c-1.403.988-1.321 3.128.166 3.951l22.456 13.662c.743.412 1.651.33 2.394-.164l2.477-1.235c.825-.411.825-1.564 0-2.057z" fill="url(#paint14_linear)"/><path opacity=".35" d="M322.567 188.804l-9.66-5.35a.529.529 0 00-.495 0l-13.457 7.737c-.331.164-.331.658 0 .823l9.659 5.35a.53.53 0 00.496 0l13.457-7.737a.466.466 0 000-.823z" fill="url(#paint15_linear)"/><path d="M335.28 99.093l-.082 37.86-45.078-25.926.083-37.86 45.077 25.926z" fill="#185A97"/><path d="M335.281 99.093l9.329-5.432-.082 37.942-9.33 5.35.083-37.86z" fill="#0078D4"/><path d="M290.201 73.168l9.329-5.432 45.078 25.925-9.329 5.433-45.078-25.926z" fill="#2195DC"/><path d="M311.091 68.31l1.651-1.069 2.147 3.95-1.569 1.07-2.229-3.95z" fill="#A1F6FF"/><path d="M299.367 61.563l1.651-1.07 11.723 6.749-1.651 1.07-11.723-6.75z" fill="#CCFDFF"/><path d="M311.09 68.311l2.229 3.95 27.575 15.803v6.008l-41.527-23.868v-8.641l11.723 6.748z" fill="#50E6FF"/><path d="M313.32 72.262l1.568-1.07 27.658 15.802-1.651 1.07-27.575-15.802z" fill="#CCFDFF"/><path d="M340.896 88.064l1.651-1.07v5.926l-1.651 1.152v-6.008zM308.117 70.04l1.569-1.07 2.146 3.868-1.568 1.153-2.147-3.95z" fill="#A1F6FF"/><path d="M296.393 63.291l1.569-1.07 11.723 6.75-1.568 1.07-11.724-6.75z" fill="#CCFDFF"/><path d="M308.118 70.04l2.146 3.95 27.658 15.803v5.926l-41.61-23.786.082-8.642 11.724 6.75z" fill="#50E6FF"/><path d="M310.264 73.99l1.568-1.151 27.658 15.884-1.569 1.07-27.657-15.802z" fill="#CCFDFF"/><path d="M337.921 89.793l1.569-1.07v5.926l-1.569 1.07v-5.926zm-32.858-18.107l1.569-1.07 2.229 3.868-1.651 1.153-2.147-3.95z" fill="#A1F6FF"/><path d="M293.341 64.937l1.568-1.07 11.724 6.75-1.569 1.069-11.723-6.749z" fill="#CCFDFF"/><path d="M305.064 71.686l2.146 3.95 27.658 15.803v5.926L293.34 73.579v-8.642l11.724 6.75z" fill="#50E6FF"/><path d="M307.21 75.637l1.652-1.152 27.657 15.884-1.651 1.07-27.658-15.802z" fill="#CCFDFF"/><path d="M334.868 91.439l1.651-1.07-.082 5.926-1.569 1.07v-5.926z" fill="#A1F6FF"/><path d="M300.276 178.351l-.083 15.802-13.787-7.901V170.45l13.87 7.901z" fill="#45CAF2"/><path d="M300.276 178.351l13.457-7.901-.083 15.802-13.457 7.901.083-15.802z" fill="#50E6FF"/><path d="M286.406 170.45l13.457-7.983 13.87 7.983-13.457 7.901-13.87-7.901z" fill="#50E6FF"/><path d="M322.071 190.779v16.379l-14.283-8.231v-16.378l14.283 8.23z" fill="#243A5E"/><path d="M322.071 190.779l13.952-8.23v16.378l-13.952 8.231v-16.379z" fill="#1D4A79"/><path d="M307.789 182.549l13.953-8.23 14.283 8.23-13.953 8.23-14.283-8.23z" fill="#156AB3"/><path d="M300.524 205.923l-.083 16.131-14.035-8.148v-16.131l14.118 8.148z" fill="#0078D4"/><path d="M300.523 205.923l13.705-8.148v16.131l-13.788 8.148.083-16.131z" fill="#2195DC"/><path d="M286.406 197.775l13.787-8.148 14.035 8.148-13.705 8.148-14.117-8.148z" fill="#45CAF2"/><path d="M408.924 139.751l9.165 5.268-.083 36.789-32.116-18.518.165-46.584 22.952 13.169-.083 9.876z" fill="#2195DC"/><path d="M410.493 144.936v2.634l-18.576-10.782v-2.634l18.576 10.782zm0 5.103v2.716l-18.576-10.782v-2.716l18.576 10.782zm0 4.938v2.716l-18.576-10.781v-2.634l18.576 10.699z" fill="#50E6FF"/><path d="M409.007 129.875l4.21-2.387-.082 9.794-4.211 2.469.083-9.876z" fill="#0078D4"/><path d="M386.056 116.706l4.21-2.469 22.952 13.251-4.211 2.387-22.951-13.169z" fill="#32B0E7"/><path d="M409.007 129.875l4.21-2.387 9.164 15.062-4.21 2.469-9.164-15.144z" fill="#A1F6FF"/><path d="M408.924 139.751l4.211-2.469 9.246 5.267-4.21 2.47-9.247-5.268z" fill="#A1F6FF"/><path d="M418.171 145.019l4.21-2.469-.165 36.789-4.21 2.469.165-36.789z" fill="#32B0E7"/><path d="M409.007 129.875l9.164 15.143-9.247-5.267.083-9.876z" fill="#50E6FF"/><path d="M388.202 150.534l9.164 5.267-.082 36.79-32.116-18.519.165-46.583 22.952 13.168-.083 9.877z" fill="#0078D4"/><path d="M389.771 155.718v2.634l-18.576-10.782v-2.633l18.576 10.781zm0 5.103v2.716l-18.576-10.782v-2.716l18.576 10.782zm0 4.938v2.716l-18.576-10.781v-2.634l18.576 10.699z" fill="#50E6FF"/><path d="M388.285 140.657l4.21-2.387-.082 9.794-4.211 2.469.083-9.876z" fill="#0078D4"/><path d="M365.332 127.488l4.211-2.469 22.951 13.251-4.21 2.387-22.952-13.169z" fill="#32B0E7"/><path d="M388.285 140.657l4.21-2.387 9.164 15.062-4.21 2.469-9.164-15.144z" fill="#A1F6FF"/><path d="M388.202 150.533l4.211-2.469 9.246 5.268-4.21 2.469-9.247-5.268z" fill="#A1F6FF"/><path d="M397.449 155.801l4.211-2.469-.165 36.789-4.211 2.469.165-36.789z" fill="#2195DC"/><path d="M388.285 140.656l9.164 15.144-9.247-5.267.083-9.877z" fill="#50E6FF"/><path d="M365.91 162.713l9.164 5.268-.082 36.789-32.116-18.518.165-46.584 22.952 13.169-.083 9.876z" fill="#185A97"/><path d="M367.561 167.981l-.083 2.634-18.576-10.782v-2.634l18.659 10.782zm0 5.103l-.083 2.634-18.576-10.7v-2.716l18.659 10.782zm0 4.938l-.083 2.716-18.576-10.782v-2.716l18.659 10.782zm-1.569-25.103l4.211-2.387v9.794l-4.293 2.387.082-9.794z" fill="#0078D4"/><path d="M343.04 139.751l4.21-2.469 22.952 13.251-4.211 2.387-22.951-13.169z" fill="#2195DC"/><path d="M365.993 152.919l4.211-2.387 9.164 15.062-4.211 2.469-9.164-15.144z" fill="#32B0E7"/><path d="M375.157 168.064l4.21-2.47-.165 36.79-4.21 2.469.165-36.789zm-9.165-15.145l9.164 15.144-9.246-5.349.082-9.795z" fill="#0078D4"/><path opacity=".35" d="M82.73 202.384l-10.155-5.761a.524.524 0 00-.496 0l-14.2 8.312c-.33.165-.33.741 0 .906l10.155 5.761a.53.53 0 00.495 0l14.2-8.313c.33-.164.33-.741 0-.905z" fill="url(#paint16_linear)"/><path opacity=".35" d="M108.405 186.746l-10.154-5.761a.53.53 0 00-.496 0l-14.118 8.313c-.33.164-.33.74 0 .905l10.155 5.761c.165.083.33.083.496 0l14.2-8.312c.33-.165.33-.659-.083-.906z" fill="url(#paint17_linear)"/><path opacity=".35" d="M133.091 170.697l-10.154-5.761a.53.53 0 00-.496 0l-14.2 8.313c-.33.164-.33.74 0 .905l10.155 5.761c.165.083.33.083.495 0l14.2-8.312c.331-.165.331-.659 0-.906z" fill="url(#paint18_linear)"/><path opacity=".35" d="M185.27 139.916l-10.155-5.761a.523.523 0 00-.495 0l-14.2 8.312c-.331.165-.331.741 0 .905l10.154 5.762a.53.53 0 00.496 0l14.2-8.313c.33-.165.33-.741 0-.905z" fill="url(#paint19_linear)"/><path opacity=".35" d="M212.101 125.019l-10.403-5.926a.529.529 0 00-.495 0l-14.531 8.56c-.33.246-.33.74 0 .905l10.403 5.926c.165.082.33.082.495 0l14.531-8.56c.33-.164.33-.658 0-.905z" fill="url(#paint20_linear)"/><path opacity=".35" d="M237.53 109.134l-10.402-5.844a.53.53 0 00-.496 0l-14.448 8.478c-.33.247-.33.74 0 .905l10.403 5.844c.165.082.33.082.495 0l14.448-8.478a.485.485 0 000-.905z" fill="url(#paint21_linear)"/><path opacity=".35" d="M264.279 94.32l-10.155-5.762a.527.527 0 00-.495 0l-14.201 8.313c-.33.165-.33.74 0 .905l10.155 5.762a.53.53 0 00.496 0l14.2-8.313c.413-.247.413-.74 0-.905z" fill="url(#paint22_linear)"/><path opacity=".35" d="M291.028 79.423l-10.154-5.762a.53.53 0 00-.496 0l-14.2 8.313c-.33.165-.33.74 0 .905l10.155 5.761c.165.083.33.083.495 0l14.2-8.312c.331-.247.331-.74 0-.905z" fill="url(#paint23_linear)"/><path d="M285.414 9.3l-15.522 9.053L254.289 9.3 269.81.329l15.604 8.97z" fill="#50E6FF"/><path d="M285.413 9.3l-.165 67.077-15.521 9.053.165-67.077 15.521-9.054z" fill="#50E6FF"/><path d="M269.892 18.353l-.165 67.077-15.603-9.053.165-67.078 15.603 9.054z" fill="#50E6FF"/><path d="M259.326 24.444l-15.521 9.053-15.604-9.053 15.521-8.972 15.604 8.972z" fill="#45CAF2"/><path d="M259.327 24.443l-.166 67.078-15.521 9.053.165-67.077 15.522-9.054z" fill="#45CAF2"/><path d="M243.805 33.497l-.165 67.077-15.604-9.053.165-67.078 15.604 9.054z" fill="#45CAF2"/><path d="M232.493 39.423l-15.521 9.053-15.604-9.053 15.521-8.971 15.604 8.97zm.001 0l-.166 67.077-15.521 9.053.165-67.077 15.522-9.053z" fill="#32B0E7"/><path d="M216.973 48.476l-.166 67.077-15.603-9.053.165-67.077 15.604 9.053z" fill="#32B0E7"/><path d="M205.989 54.567l-15.521 8.97-15.604-8.97 15.522-8.971 15.603 8.97zm.002-.001l-.166 67.078-15.521 8.971.165-67.078 15.522-8.97z" fill="#2195DC"/><path d="M190.47 63.538l-.165 67.077-15.687-8.971.248-67.078 15.604 8.971z" fill="#2195DC"/><path d="M179.655 69.628l-15.521 9.054-15.604-9.054 15.521-8.97 15.604 8.97z" fill="#0078D4"/><path d="M179.655 69.628l-.165 67.077-15.522 9.054.165-67.078 15.522-9.053z" fill="#0078D4"/><path d="M164.133 78.681l-.165 67.078-15.604-9.054.165-67.077 15.604 9.053z" fill="#0078D4"/><path d="M153.401 84.608L137.88 93.66l-15.604-9.053 15.521-8.971 15.604 8.97zm.001 0l-.165 67.159-15.522 8.971.165-67.077 15.522-9.053z" fill="#156AB3"/><path d="M137.88 93.661l-.165 67.077-15.604-8.971.165-67.16 15.604 9.054z" fill="#156AB3"/><path d="M127.063 99.751l-15.522 8.971-15.603-8.97 15.521-8.972 15.604 8.971z" fill="#185A97"/><path d="M127.063 99.75l-.165 67.078-15.521 9.053.165-67.159 15.521-8.971z" fill="#185A97"/><path d="M111.542 108.722l-.165 67.159-15.604-9.053.165-67.077 15.604 8.971z" fill="#185A97"/><path d="M100.81 115.06l-15.522 8.971-15.603-8.971 15.52-9.054 15.605 9.054zm.001 0l-.165 67.077-15.522 8.971.166-67.077 15.521-8.971z" fill="#1D4A79"/><path d="M85.29 124.031l-.166 67.077-15.603-8.971.165-67.077 15.603 8.971z" fill="#1D4A79"/><path d="M74.471 130.286l-15.521 8.971-15.604-8.971 15.522-9.054 15.603 9.054zm.003-.001l-.248 67.077-15.521 8.971.247-67.077 15.522-8.971z" fill="#243A5E"/><path d="M58.952 139.256l-.248 67.077-15.603-8.971.247-67.077 15.604 8.971z" fill="#243A5E"/><path d="M42.358 179.586h.081M284.342 41.892h.081" stroke="#fff" stroke-width="1.834" stroke-miterlimit="10" stroke-linecap="round"/><path d="M40.459 184.031s22.621-56.214 28.566-71.275c5.944-15.062 25.51-54.238 46.481-55.637 23.942-1.647 43.674 35.555 52.013 50.287" stroke="#50E6FF" stroke-width="1.834" stroke-miterlimit="10" stroke-linecap="round"/><path d="M43.101 177.694s11.228-31.193 18.493-42.963c7.266-11.851 11.229-15.061 16.76-15.802 5.45-.741 11.724 2.798 15.852 9.136 4.128 6.337 15.851 22.469 21.878 30.452 6.11 7.983 9.495 10.206 16.925 9.629 7.43-.576 13.044-9.629 16.017-15.226 2.972-5.596 15.686-36.789 18.823-45.184 3.138-8.395 13.458-32.18 17.586-41.152 4.128-8.971 11.145-19.67 18.493-20.082 7.348-.412 12.467 3.95 21.631 16.214 9.164 12.263 13.952 22.55 20.887 28.477 6.935 5.926 9.908 5.926 15.522 3.95 5.614-1.975 12.962-12.839 16.181-21.399 1.652-4.444 6.275-32.345 6.275-32.345" stroke="#50E6FF" stroke-width="1.467" stroke-miterlimit="10" stroke-linecap="round"/><path d="M40.46 184.031s8.586-19.177 13.292-26.173c4.706-6.913 6.852-11.852 14.695-12.099 7.843-.329 14.035 7.243 17.75 11.111 3.716 3.869 9.66 10.206 16.43 8.56 6.853-1.646 12.549-11.193 17.503-21.564 4.871-10.37 10.815-21.398 14.2-27.9 3.385-6.502 7.843-15.803 15.521-18.19 7.679-2.386 17.916 9.877 17.916 9.877s10.485 12.263 19.979 8.971c9.495-3.21 15.852-19.012 18.659-24.938 2.807-5.926 11.146-23.21 14.365-29.053 3.22-5.926 9.165-13.58 15.852-13.91 6.687-.328 14.035 7.984 18.328 12.51 4.293 4.61 9.908 9.137 17.338 6.832 7.43-2.387 12.054-26.749 12.054-26.749" stroke="#50E6FF" stroke-width="1.467" stroke-miterlimit="10" stroke-linecap="round"/><path d="M40.459 184.03s11.146-20.987 18.08-23.703c6.936-2.716 7.266-1.646 11.394-.165 4.128 1.482 10.568 5.268 16.677 3.786 6.11-1.481 10.485-7.901 12.714-11.111 2.229-3.127 10.568-16.79 14.696-22.139 4.128-5.35 7.348-7.737 12.467-7.737 5.118 0 10.072 2.305 12.796 3.621 2.725 1.317 7.926 4.033 15.439-1.975 7.513-6.008 15.439-20.164 18.824-25.102 3.385-4.939 7.265-11.03 13.209-12.428 5.945-1.4 11.889 1.481 15.852 2.963 4.045 1.481 8.999 3.456 15.604-1.893 6.604-5.35 13.127-17.202 15.934-21.482 2.807-4.362 8.669-15.226 15.686-15.966 7.018-.741 8.421.658 15.191 3.621 6.77 2.88 7.348 2.222 12.467-1.646 5.118-3.868 6.852-11.029 6.852-11.029" stroke="#50E6FF" stroke-width="1.467" stroke-miterlimit="10" stroke-linecap="round"/><path opacity=".35" d="M66.702 227.158l87.101-48.559c1.403-.741 3.054-.741 4.375 0l121.446 70.122c2.972 1.728 2.972 6.008-.083 7.737l-87.018 48.476c-1.403.741-3.055.741-4.375 0L66.702 234.812c-2.972-1.729-2.972-6.008 0-7.654z" fill="url(#paint24_linear)"/><path d="M92.295 213.578l2.477 3.209 119.959 70.287c2.56 1.482 5.78.741 7.348-1.728l54.325-85.184.578-2.963.495 1.235c.578 1.399.495 3.045-.33 4.362l-54.407 85.102c-1.486 2.386-4.624 3.127-7.018 1.728L95.019 219.092c-1.238-.741-2.146-1.975-2.394-3.457l-.33-2.057z" fill="#505055"/><path d="M93.945 216.293l122.602 71.769c1.569.905 3.55.412 4.541-1.07l55.48-87.077c.991-1.564.496-3.704-1.156-4.691l-122.519-71.769c-1.568-.905-3.55-.411-4.54 1.07l-55.48 87.077c-1.074 1.564-.579 3.704 1.072 4.691z" fill="#78787D"/><path d="M100.881 213.083l115.997 67.901 51.435-81.563-115.914-67.983-51.518 81.645z" fill="#323237"/><path d="M208.871 242.054l.413-.741-70.671-42.222-.413.741 70.671 42.222zm4.293-7.161l.412-.741-70.671-42.221-.413.74 70.672 42.222zm4.293-7.078l.413-.741-70.671-42.221-.413.74 70.671 42.222zm4.21-7.16l.413-.741-70.671-42.222-.413.741 70.671 42.222zm4.294-7.078l.413-.741-70.672-42.222-.412.741 70.671 42.222z" fill="#505055"/><path d="M207.302 244.605l.413-.741-70.589-42.222-.413.741 70.589 42.222z" fill="#0078D4"/><path d="M201.688 237.691l7.265 4.28 5.779-9.629-7.265-4.28-5.779 9.629z" fill="#1D4A79"/><path d="M192.606 232.26l7.266 4.362 8.008-13.251-7.265-4.362-8.009 13.251z" fill="#185A97"/><path d="M183.608 226.91l7.265 4.279 10.073-16.789-7.266-4.28-10.072 16.79z" fill="#156AB3"/><path d="M174.608 221.478l7.266 4.362 13.374-22.222-7.265-4.362-13.375 22.222z" fill="#0078D4"/><path d="M165.279 215.963l7.266 4.28 12.136-20.164-7.265-4.28-12.137 20.164z" fill="#2195DC"/><path d="M156.28 210.531l7.265 4.363 9.99-16.626-7.265-4.362-9.99 16.625z" fill="#32B0E7"/><path d="M147.281 205.181l7.265 4.28 15.439-25.679-7.265-4.279-15.439 25.678z" fill="#45CAF2"/><path d="M138.2 199.75l7.265 4.362 18.246-30.37-7.266-4.362-18.245 30.37z" fill="#50E6FF"/><path d="M131.708 210.785l4.503 2.756 2.765-4.489-4.503-2.756-2.765 4.489zm30.764 16.372l.496-.659-24.273-14.485-.495.658 24.272 14.486z" fill="#505055"/><path d="M161.647 228.474l.496-.659-24.273-14.485-.495.658 24.272 14.486zm69.268-23.622l1.816-2.386-36.657-22.058-1.816 2.387 36.657 22.057z" fill="#323237"/><path d="M313.155 103.62l-3.963 42.304-53.417-28.806 4.706-41.234c.083-.988 1.239-1.564 2.064-1.07l50.61 28.806z" fill="#0078D4"/><path d="M313.155 103.62l-3.963 42.304-53.417-28.806 4.706-41.563a1.174 1.174 0 011.734-.906l50.94 28.971z" fill="#505055"/><path d="M254.784 115.965l-35.666 20.329 3.467 2.223 49.949 27.983 1.073.658 35.253-20 1.239-.658-.743-1.152-52.839-29.465c-.578-.247-1.238-.247-1.733.082z" fill="#78787D"/><path d="M264.279 148.393l-8.256 4.691a.62.62 0 01-.743 0l-12.384-6.995c-.247-.165-.247-.494 0-.576l8.091-4.774a.62.62 0 01.743 0l12.549 6.996a.384.384 0 010 .658z" fill="#CDCDD0"/><path d="M219.119 135.965c.165.247.413.659.743.906 6.275 4.444 50.114 28.724 51.518 29.547 1.568.823 1.486 1.152 3.632-.083 1.899-1.07 28.401-15.966 34.015-19.423.66-.412.66-1.235.743-1.235.33-.247.495 1.976.413 2.963-.083.329-.413.905-.743 1.07-3.881 2.387-32.694 18.765-34.098 19.753-2.476 1.728-3.054 1.317-4.623.082-2.229-1.728-47.307-26.995-51.352-29.876-.248-.165-.33-.411-.33-.658v-2.881c-.083-.082 0-.494.082-.165z" fill="#0078D4"/><path d="M219.119 135.965c.165.247.413.659.743.906 6.274 4.444 50.114 28.724 51.517 29.547 1.569.823 1.486 1.152 3.633-.083 1.899-1.07 28.401-15.966 34.015-19.423.66-.412.743-1.235.743-1.235.33-.247.495 1.976.33 2.963-.083.329-.413.905-.743 1.07-3.88 2.387-32.694 18.765-34.097 19.753-2.477 1.728-3.138 1.234-4.624.082-2.229-1.728-47.307-26.995-51.352-29.876-.248-.165-.33-.411-.33-.658v-2.881c0-.082.082-.494.165-.165z" fill="#505055"/><path d="M271.874 167.24l-52.508-29.876c-.33-.329-.33-.658-.33-.905s.165-.576.412-.741l34.923-20.082a1.423 1.423 0 011.404 0l53.829 29.547c.33.165.495.823.495 1.235 0 .411-.165.74-.495.905l-35.336 19.835a2.333 2.333 0 01-1.238.329c-.413.083-.826 0-1.156-.247zm-51.435-30.863c-.082 0-.165.082-.165.164s.083.247.165.329l51.765 29.383a1.95 1.95 0 001.899 0l34.675-19.589c.165-.082.331-.329.331-.493 0-.247-.083-.412-.248-.494l-53.664-29.3-34.758 20z" fill="#78787D"/><path d="M256.436 116.048s.165.576.743 1.152c.331.411-1.238-.659-1.238-.659l.495-.493z" fill="#78787D"/><path d="M258.747 114.649l47.638 25.514 3.467-34.239-46.564-26.337c-.082-.082-.165-.082-.248 0-.082 0-.165.083-.165.165 0 0-4.21 34.814-4.128 34.897z" fill="#9B9BA0"/><path d="M258.747 114.649l47.638 25.514 3.467-34.239-46.564-26.337c-.082-.082-.165-.082-.248 0-.082 0-.165.083-.165.165 0 0-4.21 34.814-4.128 34.897z" fill="#323237"/><path d="M255.776 115.307c.33-3.21 4.293-37.695 4.293-39.094.082-1.4 1.403-2.963 2.972-2.222.743.329 48.38 27.736 49.123 28.148 1.899 1.234 1.651 1.646 1.569 4.115 0 1.893-3.468 36.872-3.798 38.188-.413 1.893.413 1.4-.826 1.317v-.082h-.082c-.248 0-.496-.329-.413-.576 0-.165 3.633-37.695 3.633-37.695.247-2.798-.165-3.128-1.074-3.786-.743-.494-48.628-28.23-48.628-28.23s-.908-.33-1.403.247c-.248.247-.413.74-.495 1.481-.166 1.4-3.963 35.802-4.294 39.012-.082.576 0 .412.083.659.083.246-.248-.247-.495-.165-.248.082.082.411 0 .165.082-.494-.248-.824-.165-1.482z" fill="#78787D"/><path d="M255.776 125.843l-2.312 1.399 3.22 1.81 2.312-1.399-3.22-1.81zm4.045 2.304l-2.229 1.399 2.642 1.482 2.311-1.4-2.724-1.481zm3.55 1.975l-2.311 1.399 2.724 1.482 2.229-1.317-2.642-1.564zm-10.154-2.14l-5.697-3.21-2.394 1.4 5.614 3.209 2.477-1.399zm24.932 20.412l2.229-1.317-2.89-1.646-2.229 1.317 2.89 1.646zm3.22 1.81l2.229-1.317-2.394-1.317-2.229 1.317 2.394 1.317zm-6.935-13.827l-2.311 1.399 2.807 1.646 2.311-1.399-2.807-1.646zm1.321 4.363l-2.394 1.481 2.807 1.564 2.394-1.482-2.807-1.563zm3.633 2.057l-2.394 1.481 2.889 1.646 2.395-1.481-2.89-1.646zm-.661-1.317l2.23-1.317-2.807-1.646-2.312 1.399 2.889 1.564zm-6.439-2.634l-2.394 1.399 2.641 1.482 2.395-1.482-2.642-1.399zm9.99 4.692l2.311-1.317-2.724-1.564-2.312 1.317 2.725 1.564zm-11.725-9.301l-2.311 1.399 2.972 1.646 2.312-1.317-2.973-1.728zm-3.632-2.057l-2.312 1.317 2.808 1.646 2.311-1.4-2.807-1.563zm-2.641 8.395l2.229-1.317-2.642-1.564-2.229 1.317 2.642 1.564zm3.302 1.892l2.229-1.399-2.394-1.317-2.229 1.317 2.394 1.399zm-13.54-13.991l-2.395 1.399 2.973 1.646 2.394-1.399-2.972-1.646zm6.688 10.041l2.311-1.317-2.642-1.481-2.229 1.317 2.56 1.481zm22.951 9.547l2.394-1.399-2.972-1.728-2.395 1.399 2.973 1.728zm5.862-.411l2.312-1.317-2.807-1.564-2.312 1.317 2.807 1.564zm-15.109-1.317l2.229-1.399-2.477-1.399-2.311 1.317 2.559 1.481zm-5.531-9.465l-2.395 1.399 2.56 1.482 2.394-1.399-2.559-1.482zm-3.716-2.058l-2.394 1.4 2.89 1.646 2.394-1.482-2.89-1.564zm-3.55-2.057l-2.394 1.399 2.725 1.564 2.394-1.399-2.725-1.564zm9.412 11.604l2.229-1.316-2.559-1.482-2.312 1.317 2.642 1.481zm-13.126-13.744l-2.477 1.399 2.972 1.728 2.394-1.481-2.889-1.646zm30.794 10.453l-2.146 1.316 2.642 1.564 2.229-1.317-2.725-1.563zm-31.456-4.445l2.312-1.399-2.559-1.4-2.229 1.317 2.476 1.482zm28.319 2.634l-2.229 1.317 2.312 1.316 2.229-1.316-2.312-1.317zm6.687 3.868l-2.229 1.235 3.137 1.81 2.147-1.317-3.055-1.728zm-6.77-.411l-2.311 1.316 2.724 1.564 2.312-1.317-2.725-1.563zm14.366 3.785l2.064-1.234-4.046-2.305-2.064 1.235 4.046 2.304zm-17.751-9.135l-2.146 1.317 2.559 1.399 2.147-1.317-2.56-1.399zm-14.2-8.066l-2.146 1.317 2.724 1.564 2.229-1.317-2.807-1.564zm26.998 14.403l2.064-1.235-2.56-1.481-2.064 1.234 2.56 1.482zm-30.879-16.625l-2.146 1.317 2.972 1.728 2.229-1.317-3.055-1.728zm-3.384-1.893l-2.23 1.317 2.56 1.399 2.229-1.317-2.559-1.399zm18.08 10.206l-2.229 1.317 2.559 1.481 2.23-1.317-2.56-1.481zm-3.549-1.976l-2.229 1.317 2.724 1.482 2.147-1.317-2.642-1.482zm-20.228-8.066l-4.376-2.469-2.311 1.4 4.375 2.469 2.312-1.4zm16.594 6.009l-2.146 1.317 2.724 1.564 2.229-1.317-2.807-1.564zm-8.255-5.597l2.064-1.234-2.311-1.317-2.064 1.234 2.311 1.317zm28.235 15.967l2.064-1.152-2.972-1.729-2.064 1.235 2.972 1.646zm-24.933-14.156l2.064-1.152-2.477-1.399-2.064 1.234 2.477 1.317zm3.55 2.057l2.064-1.234-2.725-1.482-2.063 1.152 2.724 1.564zm-11.393-8.806l-2.395-1.399-1.981 1.234 2.312 1.399 2.064-1.234zm-2.477 1.893l-2.725-1.564-2.146 1.317 2.724 1.564 2.147-1.317zm3.88 1.234l2.064-1.234-2.559-1.399-2.064 1.152 2.559 1.481zm27.493 15.638l2.064-1.235-2.312-1.317-2.063 1.235 2.311 1.317zm-13.788-7.819l2.064-1.234-2.889-1.647-2.064 1.235 2.889 1.646zm10.651 6.008l2.064-1.234-2.642-1.482-2.064 1.235 2.642 1.481zm-3.468-1.975l2.064-1.152-2.642-1.564-2.064 1.235 2.642 1.481zm-3.55-1.975l2.064-1.235-2.807-1.564-2.064 1.153 2.807 1.646zm-20.31-10.617l-2.229 1.234 2.642 1.564 2.229-1.317-2.642-1.481zm11.725 20.905l-2.477 1.399 2.807 1.646 2.477-1.482-2.807-1.563zm-3.469-1.975l-2.394 1.481 2.559 1.399 2.477-1.399-2.642-1.481zm-16.76-13.087l-4.376-2.469-2.229 1.399 4.376 2.469 2.229-1.399zm-7.347-.658l-2.477 1.481 2.642 1.481 2.477-1.399-2.642-1.563zm3.55 2.057l-2.477 1.399 2.477 1.482 2.477-1.482-2.477-1.399zm10.155 5.761l-2.477 1.4 2.477 1.481 2.477-1.481-2.477-1.4zm-3.468-1.975l-2.477 1.482 2.56 1.481 2.477-1.481-2.56-1.482zm-3.385-1.893l-2.394 1.482 2.477 1.399 2.394-1.481-2.477-1.4zm48.05 13.004l-2.229 1.317 2.89 1.646 2.229-1.317-2.89-1.646zm-37.894-7.243l-2.477 1.4 2.889 1.646 2.395-1.482-2.807-1.564zm3.714 2.058l-2.477 1.481 2.56 1.482 2.476-1.482-2.559-1.481zm28.318 7.983l3.468 1.976 2.311-1.4-3.467-1.975-2.312 1.399zm-8.173 2.552l5.449 3.127 2.229-1.317-5.449-3.127-2.229 1.317zm-2.807-.658l-2.394 1.481 2.394 1.317 2.394-1.399-2.394-1.399zm.825 3.291l4.211 2.387 2.394-1.481-4.128-2.305-2.477 1.399zm-26.336-18.682l2.312-1.317-2.89-1.646-2.311 1.317 2.889 1.646zm18.658 11.522l-2.394 1.482 2.56 1.399 2.394-1.399-2.56-1.482zm3.468 1.893l-2.477 1.482 2.56 1.481 2.477-1.481-2.56-1.482zm-25.842-15.555l2.229-1.317-2.889-1.646-2.23 1.317 2.89 1.646zm34.428 16.049l6.11 3.457 2.394-1.399-6.109-3.457-2.395 1.399z" fill="#CDCDD0"/><path d="M286.158 102.331c2.354 1.184 3.877 3.69 4.292 6.476.416.069.762.208 1.177.417 2.769 1.463 4.154 5.292 3.046 8.704a5.408 5.408 0 01-.484 1.114c0 .07-.069.07-.069.14a7.16 7.16 0 01-.97 1.253l-.138.139c-1.523 1.393-3.531 1.811-5.47.836l-14.538-7.52c-1.523-1.045-2.285-3.343-1.593-5.292.693-2.089 2.7-3.064 4.5-2.159.347.209.693.418.97.766 0-.139.069-.209.069-.348 1.523-4.457 5.608-6.406 9.208-4.526z" fill="#50E6FF"/></g><defs><linearGradient id="paint0_linear" x1="330.684" y1="72.201" x2="115.026" y2="317.294" gradientUnits="userSpaceOnUse"><stop/><stop offset=".822" stop-opacity="0"/></linearGradient><linearGradient id="paint1_linear" x1="367.372" y1="265.331" x2="407.241" y2="265.331" gradientUnits="userSpaceOnUse"><stop/><stop offset=".822" stop-opacity="0"/></linearGradient><linearGradient id="paint2_linear" x1="366.012" y1="253.694" x2="396.908" y2="253.694" gradientUnits="userSpaceOnUse"><stop stop-color="#4DC2EB"/><stop offset=".585" stop-color="#0078D4"/></linearGradient><linearGradient id="paint3_linear" x1="462.784" y1="205.406" x2="502.654" y2="205.406" gradientUnits="userSpaceOnUse"><stop/><stop offset=".822" stop-opacity="0"/></linearGradient><linearGradient id="paint4_linear" x1="462.022" y1="194.564" x2="492.918" y2="194.564" gradientUnits="userSpaceOnUse"><stop stop-color="#4DC2EB"/><stop offset=".585" stop-color="#0078D4"/></linearGradient><linearGradient id="paint5_linear" x1="415.508" y1="235.454" x2="455.377" y2="235.454" gradientUnits="userSpaceOnUse"><stop/><stop offset=".822" stop-opacity="0"/></linearGradient><linearGradient id="paint6_linear" x1="414.747" y1="224.612" x2="445.643" y2="224.612" gradientUnits="userSpaceOnUse"><stop stop-color="#4DC2EB"/><stop offset=".585" stop-color="#0078D4"/></linearGradient><linearGradient id="paint7_linear" x1="327.548" y1="116.328" x2="303.399" y2="143.506" gradientUnits="userSpaceOnUse"><stop/><stop offset=".822" stop-opacity="0"/></linearGradient><linearGradient id="paint8_linear" x1="303.475" y1="212.736" x2="314.12" y2="224.716" gradientUnits="userSpaceOnUse"><stop/><stop offset=".822" stop-opacity="0"/></linearGradient><linearGradient id="paint9_linear" x1="326.748" y1="198.322" x2="337.393" y2="210.302" gradientUnits="userSpaceOnUse"><stop/><stop offset=".822" stop-opacity="0"/></linearGradient><linearGradient id="paint10_linear" x1="276.557" y1="143.906" x2="303.226" y2="173.92" gradientUnits="userSpaceOnUse"><stop/><stop offset=".822" stop-opacity="0"/></linearGradient><linearGradient id="paint11_linear" x1="332.236" y1="123.735" x2="352.999" y2="147.827" gradientUnits="userSpaceOnUse"><stop/><stop offset=".822" stop-opacity="0"/></linearGradient><linearGradient id="paint12_linear" x1="365.291" y1="190.07" x2="387.098" y2="215.373" gradientUnits="userSpaceOnUse"><stop/><stop offset=".822" stop-opacity="0"/></linearGradient><linearGradient id="paint13_linear" x1="385.442" y1="176.635" x2="407.25" y2="201.939" gradientUnits="userSpaceOnUse"><stop/><stop offset=".822" stop-opacity="0"/></linearGradient><linearGradient id="paint14_linear" x1="405.204" y1="165.575" x2="427.011" y2="190.879" gradientUnits="userSpaceOnUse"><stop/><stop offset=".822" stop-opacity="0"/></linearGradient><linearGradient id="paint15_linear" x1="305.954" y1="184.868" x2="316.599" y2="196.848" gradientUnits="userSpaceOnUse"><stop/><stop offset=".822" stop-opacity="0"/></linearGradient><linearGradient id="paint16_linear" x1="64.837" y1="198.131" x2="76.273" y2="210.801" gradientUnits="userSpaceOnUse"><stop/><stop offset=".822" stop-opacity="0"/></linearGradient><linearGradient id="paint17_linear" x1="90.542" y1="182.525" x2="101.977" y2="195.196" gradientUnits="userSpaceOnUse"><stop/><stop offset=".822" stop-opacity="0"/></linearGradient><linearGradient id="paint18_linear" x1="115.153" y1="166.467" x2="126.588" y2="179.137" gradientUnits="userSpaceOnUse"><stop/><stop offset=".822" stop-opacity="0"/></linearGradient><linearGradient id="paint19_linear" x1="167.355" y1="135.673" x2="178.791" y2="148.344" gradientUnits="userSpaceOnUse"><stop/><stop offset=".822" stop-opacity="0"/></linearGradient><linearGradient id="paint20_linear" x1="193.733" y1="120.702" x2="205.467" y2="133.703" gradientUnits="userSpaceOnUse"><stop/><stop offset=".822" stop-opacity="0"/></linearGradient><linearGradient id="paint21_linear" x1="219.283" y1="104.789" x2="230.96" y2="117.728" gradientUnits="userSpaceOnUse"><stop/><stop offset=".822" stop-opacity="0"/></linearGradient><linearGradient id="paint22_linear" x1="246.419" y1="90.055" x2="257.855" y2="102.725" gradientUnits="userSpaceOnUse"><stop/><stop offset=".822" stop-opacity="0"/></linearGradient><linearGradient id="paint23_linear" x1="273.107" y1="75.15" x2="284.543" y2="87.82" gradientUnits="userSpaceOnUse"><stop/><stop offset=".822" stop-opacity="0"/></linearGradient><linearGradient id="paint24_linear" x1="218.308" y1="191.315" x2="122.042" y2="299.656" gradientUnits="userSpaceOnUse"><stop/><stop offset=".822" stop-opacity="0"/></linearGradient><clipPath id="clip0"><path fill="#fff" transform="translate(.5)" d="M0 0h516v313H0z"/></clipPath></defs></svg>