<svg width="375" height="396" viewBox="0 0 375 396" fill="none" xmlns="http://www.w3.org/2000/svg"><g filter="url(#filter0_d)"><path d="M174.235 34.813v322.47M313.868 115.43L34.602 276.665m279.266 0L34.602 115.43" stroke="#0078D4" stroke-width="1.5"/></g><circle cx="38.509" cy="112.26" r="37.75" fill="url(#paint0_radial)"/><circle cx="172.948" cy="46.037" r="42.086" fill="url(#paint1_radial)"/><circle cx="307.41" cy="121.502" r="40.629" fill="url(#paint2_radial)"/><circle cx="326.44" cy="289.246" r="48.56" fill="url(#paint3_radial)"/><circle cx="173.016" cy="352.283" r="42.767" fill="url(#paint4_radial)"/><circle cx="41.97" cy="268.417" r="37.225" fill="url(#paint5_radial)"/><path d="M143.364 339.37l31.375-18.146 31.142 17.795-31.376 18.264-31.141-17.913z" fill="#50E6FF"/><path d="M174.504 357.283l-.234 35.941 31.376-18.146.234-35.942-31.376 18.147z" fill="#0078D4"/><path d="M143.363 339.37v35.942l30.79 17.795.235-35.941-31.025-17.796z" fill="#1E9FE0"/><path d="M174.271 357.166v-29.503l25.757 14.751-.118 29.62-25.639-14.868z" fill="#84ECFD"/><path d="M174.273 357.166l-25.054 14.868v-29.502l25.054-14.869v29.503z" fill="#ACF3FD"/><path d="M199.91 372.034l-25.756 14.751-24.936-14.751 25.053-14.868 25.639 14.868z" fill="#D5F9FD"/><path opacity=".35" d="M185.16 365.946c4.566 2.576 4.566 6.907 0 9.483-4.566 2.576-11.942 2.576-16.39 0-4.566-2.576-4.566-6.907 0-9.483 4.448-2.693 11.824-2.693 16.39 0z" fill="url(#paint6_linear)"/><path d="M184.222 368.405v1.756c0 1.405-.937 2.81-2.81 3.98-3.746 2.225-9.834 2.225-13.697 0-1.874-1.053-2.81-2.575-2.81-3.98v-1.756c0 1.405.936 2.927 2.81 3.98 3.746 2.225 9.834 2.225 13.697 0 1.873-1.053 2.81-2.458 2.81-3.98z" fill="#E6E6E6"/><path d="M184.572 349.79v18.732c0 1.522-.936 2.927-2.927 4.097-3.863 2.225-10.302 2.225-14.165 0-1.991-1.17-2.927-2.692-2.927-4.097V349.79c0 1.522.936 3.044 2.927 4.098 3.98 2.224 10.302 2.224 14.165 0 1.991-1.054 2.927-2.576 2.927-4.098z" fill="url(#paint7_linear)"/><path d="M184.572 350.258v1.874c0 1.522-.936 2.926-2.927 4.097-3.863 2.225-10.302 2.225-14.165 0-1.991-1.171-2.927-2.693-2.927-4.097v-1.874c0 1.522.936 3.044 2.927 4.098 3.98 2.224 10.302 2.224 14.165 0 1.991-1.054 2.927-2.576 2.927-4.098z" fill="#E6E6E6"/><path d="M181.647 346.512c3.981 2.224 3.981 5.971 0 8.195-3.863 2.224-10.302 2.224-14.166 0-3.98-2.224-3.98-5.971 0-8.195 3.864-2.225 10.186-2.225 14.166 0z" fill="#fff"/><path d="M179.891 347.566c3.044 1.756 3.044 4.566 0 6.322-3.043 1.756-7.843 1.756-10.887 0-3.044-1.756-3.044-4.566 0-6.322 3.044-1.756 7.961-1.756 10.887 0z" fill="#E6E6E6"/><path opacity=".75" d="M146.892 20.435l27.73-16.176 27.73 15.933-27.73 16.175-27.73-15.932z" fill="#1E9FE0"/><path opacity=".5" d="M146.648 52.42l27.973-16.175 27.365 15.933-27.729 16.175-27.609-15.932z" fill="#50E6FF"/><path opacity=".5" d="M174.5 36.245l-.243 31.987 27.73-16.176.243-31.986-27.73 16.175z" fill="#50E6FF"/><path opacity=".5" d="M146.892 20.435l-.244 31.986 27.973-16.175V4.259l-27.729 16.176z" fill="#50E6FF"/><path d="M206.366 19.948c0-2.067-1.703-3.649-3.649-3.649-2.067 0-3.648 1.703-3.648 3.65 0 1.945 1.703 3.648 3.648 3.648 1.946 0 3.649-1.581 3.649-3.649zM177.906 3.65c0-2.067-1.703-3.648-3.649-3.648s-3.649 1.703-3.649 3.649c0 2.067 1.703 3.648 3.649 3.648s3.649-1.58 3.649-3.648zm-28.338 16.541c0-2.067-1.702-3.648-3.648-3.648-2.068 0-3.649 1.702-3.649 3.648 0 1.946 1.703 3.649 3.649 3.649 2.067 0 3.648-1.581 3.648-3.649zm28.338 16.054c0-2.067-1.703-3.648-3.649-3.648s-3.649 1.702-3.649 3.648c0 2.068 1.703 3.649 3.649 3.649s3.649-1.581 3.649-3.649zm28.46 16.298c0-2.068-1.703-3.649-3.649-3.649-2.067 0-3.648 1.703-3.648 3.649 0 2.067 1.703 3.648 3.648 3.648 1.946 0 3.649-1.702 3.649-3.648zm-28.702 15.811c0-1.946-1.581-3.649-3.648-3.649-1.946 0-3.649 1.581-3.649 3.649 0 1.945 1.581 3.648 3.649 3.648 1.946-.121 3.648-1.703 3.648-3.648zm-28.096-15.811c0-2.068-1.702-3.649-3.648-3.649-2.068 0-3.649 1.703-3.649 3.649 0 2.067 1.703 3.648 3.649 3.648 2.067 0 3.648-1.702 3.648-3.648z" fill="#50E6FF"/><path opacity=".75" d="M1.563 272.491l.248-1.366 17.882-23.844 29.06-3.974.496 24.961-47.687 27.569v-23.346z" fill="#505055" stroke="#fff" stroke-width=".773" stroke-miterlimit="10" stroke-linejoin="round"/><path opacity=".8" d="M10.255 281.059l13.784-21.111 14.902-11.674 16.517 2.857-.248 23.471-44.955 26.078v-19.621z" fill="#0078D4" stroke="#50E6FF" stroke-width=".773" stroke-miterlimit="10" stroke-linejoin="round"/><path d="M20.438 284.785l7.078-15.027 11.55 1.987 13.784-12.666 13.287-12.419.497 33.282-46.197 26.699v-21.856z" fill="#50E6FF" fill-opacity=".8" stroke="#50E6FF" stroke-width=".773" stroke-miterlimit="10" stroke-linejoin="round"/><path d="M306.289 229.729l.153 18.637-18.79 42.621s-.916 12.222 24.443 12.222c25.511 0 27.344-11.611 27.039-12.833-.153-1.222-18.943-42.163-18.943-42.163l.306-18.79s-3.361-3.208-7.333-2.902c-3.819.305-7.18 1.68-6.875 3.208z" fill="url(#paint8_linear)"/><path d="M327.525 269.295c-.153-.306-.305-.611-.305-.764-1.375-2.902-6.875-5.194-13.597-5.194-7.179 0-12.985 2.75-13.901 5.958 0 .153-8.097 18.943-8.249 19.707 0 .305-.153.611-.153.916 0 5.805 9.93 10.541 22.303 10.541 12.374 0 22.304-4.736 22.304-10.541 0-.153 0-.764-.305-1.527-1.833-4.736-8.097-19.096-8.097-19.096z" fill="url(#paint9_linear)"/><path d="M313.623 300.459c12.318 0 22.304-4.719 22.304-10.541 0-5.821-9.986-10.541-22.304-10.541-12.318 0-22.303 4.72-22.303 10.541 0 5.822 9.985 10.541 22.303 10.541zm-.001-23.984c7.678 0 13.902-2.941 13.902-6.569s-6.224-6.569-13.902-6.569c-7.677 0-13.901 2.941-13.901 6.569s6.224 6.569 13.901 6.569z" fill="#0078D4"/><path d="M313.622 226.521c-5.041 0-7.332 1.833-7.332 3.36 0 1.681 3.819 2.903 7.332 2.903 3.514 0 7.333-1.375 7.333-2.903 0-1.527-1.375-3.36-7.333-3.36zm0 5.194c-2.75 0-5.958-1.07-5.958-2.292 0-1.222 3.208-2.291 5.958-2.291s5.958 1.069 5.958 2.291c-.153 1.222-3.361 2.292-5.958 2.292z" fill="#50E6FF"/><path d="M321.566 289.154h-16.193v.917h16.193v-.917zm-4.124-21.387h-7.791v.917h7.791v-.917zm1.068 7.18h-9.93v.916h9.93v-.916zm1.072 7.027h-12.068v.917h12.068v-.917z" fill="#fff"/><path d="M313.776 259.823a3.82 3.82 0 100-7.638 3.82 3.82 0 000 7.638z" fill="#50E6FF" fill-opacity=".6" stroke="#50E6FF" stroke-width="2.025" stroke-linejoin="round"/><path d="M20.783 113.748l.625 35.375 41.75-24.75-.625-35.5-41.75 24.875z" fill="#185A97"/><path d="M20.784 113.748l-8.75-5 .625 35.5 8.75 4.875-.625-35.375z" fill="#0078D4"/><path d="M62.535 88.873l-8.75-5-41.75 24.875 8.75 5 41.75-24.875z" fill="#2195DC"/><path d="M43.031 84.623l-1.625-1-1.875 3.75 1.5 1 2-3.75z" fill="#A1F6FF"/><path d="M53.785 78.123l-1.5-1-10.875 6.5 1.625 1 10.75-6.5z" fill="#CCFDFF"/><path d="M43.034 84.623l-2 3.75-25.625 15.125.125 5.625L53.91 86.248l-.125-8.125-10.75 6.5z" fill="#50E6FF"/><path d="M41.033 88.373l-1.5-1-25.625 15.125 1.5 1 25.625-15.125z" fill="#CCFDFF"/><path d="M15.408 103.498l-1.5-1v5.5l1.625 1.125-.125-5.625zm30.375-17.25l-1.5-1-2 3.625 1.5 1 2-3.625z" fill="#A1F6FF"/><path d="M56.66 79.748l-1.5-1-10.875 6.5 1.5 1 10.875-6.5z" fill="#CCFDFF"/><path d="M45.783 86.248l-2 3.625-25.5 15.125v5.625l38.5-22.875-.125-8-10.875 6.5z" fill="#50E6FF"/><path d="M43.783 89.873l-1.5-1-25.5 15.125 1.5 1 25.5-15.125z" fill="#CCFDFF"/><path d="M18.283 104.998l-1.5-1v5.625l1.5 1v-5.625zm30.377-17.25l-1.5-1-2 3.625 1.5 1 2-3.625z" fill="#A1F6FF"/><path d="M59.535 81.248l-1.5-1-10.875 6.5 1.5 1 10.875-6.5z" fill="#CCFDFF"/><path d="M48.66 87.748l-2 3.625-25.624 15.125.125 5.625 38.5-22.875-.125-8-10.875 6.5z" fill="#50E6FF"/><path d="M46.66 91.372l-1.5-1-25.624 15.125 1.5 1L46.66 91.372z" fill="#CCFDFF"/><path d="M21.036 106.497l-1.5-1 .125 5.625 1.5 1-.125-5.625z" fill="#A1F6FF"/><path d="M45.033 109.873c-2.125 1.25-3.75 4.25-3.75 6.75v.125c0 1.625.875 2.625 2 2.625l.125 4.375c0 1.25.875 1.625 2 1s1.875-2.125 1.875-3.375l-.125-4.375c1.125-1.5 1.875-3.375 1.875-5v-.125c0-2.375-1.75-3.25-4-2z" fill="#50E6FF"/><path d="M314.426 118.532l-.12 35.94-31.252-18.03.12-35.94 31.252 18.03z" fill="#243A5E"/><path d="M314.427 118.532l30.411-18.03-.121 35.94-30.41 18.03.12-35.94z" fill="#1D4A79"/><path d="M283.174 100.502l30.411-18.03 31.252 18.03-30.411 18.03-31.252-18.03z" fill="#156AB3"/><path d="M313.586 118.412l.121-28.608 24.881 14.304-.12 28.608-24.882-14.304z" fill="#84ECFD"/><path d="M313.586 118.412l-24.28 14.424.12-28.728 24.28-14.304-.12 28.608z" fill="#ACF3FD"/><path d="M338.467 132.716l-24.281 14.424-24.881-14.304 24.28-14.424 24.882 14.304z" fill="#D5F9FD"/><path opacity=".35" d="M327.288 129.59l-16.828 9.857 5.89 3.486 16.828-9.857-5.89-3.486z" fill="url(#paint10_linear)"/><path d="M305.771 106.752l12.02-6.971.121 24.641-16.949 9.736v-19.352l4.808-2.765v-5.289z" fill="#45CAF2"/><path d="M305.771 106.752l-2.284-1.322.12 5.289 2.164 1.202v-5.169z" fill="#0078D4"/><path d="M317.791 99.78l-2.164-1.201-12.14 6.851 2.284 1.322 12.02-6.971z" fill="#6ED5ED"/><path d="M305.772 106.752l-2.284-1.322-4.808 8.054 2.284 1.202 4.808-7.934z" fill="#50E6FF"/><path d="M300.964 114.686l-2.284-1.202.12 19.352 2.164 1.322v-19.472z" fill="#32B0E7"/><path d="M305.771 106.752l-4.808 7.934 4.808-2.765v-5.169z" fill="#84ECFD"/><path d="M311.42 109.878l12.02-6.972.121 24.641-16.949 9.736v-19.352l4.808-2.764v-5.289z" fill="#0078D4"/><path d="M311.42 109.878l-2.284-1.322v5.168l2.284 1.322v-5.168z" fill="#0078D4"/><path d="M323.44 102.906l-2.284-1.322-12.02 6.972 2.284 1.322 12.02-6.972z" fill="#32B0E7"/><path d="M311.421 109.878l-2.283-1.322-4.808 7.933 2.283 1.322 4.808-7.933z" fill="#1E9FE0"/><path d="M306.613 117.811l-2.283-1.322.12 19.472 2.163 1.202v-19.352z" fill="#156AB3"/><path d="M311.42 109.878l-4.808 7.933 4.808-2.765v-5.168z" fill="#32B0E7"/><path d="M316.95 113.123l12.02-6.972.12 24.641-16.948 9.737v-19.353l4.808-2.764v-5.289z" fill="#243A5E"/><path d="M316.111 121.056v1.443l9.856-5.65v-1.442l-9.856 5.649zm0 2.765v1.442l9.856-5.769v-1.323l-9.856 5.65zm0 2.644v1.322l9.856-5.649v-1.442l-9.856 5.769zm.839-13.342l-2.163-1.202v5.169l2.163 1.322v-5.289z" fill="#0078D4"/><path d="M328.97 106.272l-2.163-1.323-12.02 6.972 2.163 1.202 12.02-6.851z" fill="#185A97"/><path d="M316.951 113.123l-2.164-1.202-4.928 7.933 2.284 1.322 4.808-8.053z" fill="#156AB3"/><path d="M312.143 121.176l-2.284-1.322.12 19.352 2.164 1.323v-19.353z" fill="#1D4A79"/><path d="M316.95 113.123l-4.808 8.053 4.808-2.764v-5.289z" fill="#0078D4"/><ellipse cx="174.563" cy="190.259" rx="96.785" ry="69.564" fill="url(#paint11_radial)"/><g filter="url(#filter1_d)" fill="#0078D4"><path d="M263 210.424c0 17.864-14.481 32.346-32.346 32.346h-91.287c-17.864 0-32.346-14.482-32.346-32.346 0-17.865 14.482-32.346 32.346-32.346h91.287c17.865 0 32.346 14.481 32.346 32.346z"/><ellipse cx="134.679" cy="194.388" rx="47.938" ry="48.504" transform="rotate(-90 134.679 194.388)"/><ellipse cx="222.896" cy="171.814" rx="18.242" ry="18.532" transform="rotate(-90 222.896 171.814)"/><ellipse cx="183.184" cy="158.415" rx="36.572" ry="35.973"/></g><path d="M263 210.424c0 17.864-14.481 32.346-32.346 32.346h-91.287c-17.864 0-32.346-14.482-32.346-32.346 0-17.865 14.482-32.346 32.346-32.346h91.287c17.865 0 32.346 14.481 32.346 32.346z" fill="url(#paint12_linear)"/><ellipse cx="134.679" cy="194.388" rx="47.938" ry="48.504" transform="rotate(-90 134.679 194.388)" fill="url(#paint13_linear)"/><ellipse cx="222.896" cy="171.814" rx="18.242" ry="18.532" transform="rotate(-90 222.896 171.814)" fill="url(#paint14_linear)"/><ellipse cx="183.184" cy="158.415" rx="36.572" ry="35.973" fill="url(#paint15_linear)"/><defs><linearGradient id="paint6_linear" x1="165.309" y1="370.655" x2="188.565" y2="370.655" gradientUnits="userSpaceOnUse"><stop/><stop offset=".822" stop-opacity="0"/></linearGradient><linearGradient id="paint7_linear" x1="174.516" y1="357.652" x2="174.516" y2="386.38" gradientUnits="userSpaceOnUse"><stop stop-color="#4DC2EB"/><stop offset=".585" stop-color="#0078D4"/></linearGradient><linearGradient id="paint8_linear" x1="313.975" y1="233.131" x2="313.414" y2="309.432" gradientUnits="userSpaceOnUse"><stop offset=".019" stop-color="#0078D4"/><stop offset=".581" stop-color="#50E6FF"/></linearGradient><linearGradient id="paint9_linear" x1="328.296" y1="267.911" x2="298.113" y2="303.421" gradientUnits="userSpaceOnUse"><stop offset=".019" stop-color="#0078D4"/><stop offset=".861" stop-color="#2BB2EB"/><stop offset="1" stop-color="#3FCEF6"/></linearGradient><linearGradient id="paint10_linear" x1="319.19" y1="132.043" x2="327.015" y2="140.684" gradientUnits="userSpaceOnUse"><stop/><stop offset=".822" stop-opacity="0"/></linearGradient><linearGradient id="paint12_linear" x1="185.011" y1="242.77" x2="185.011" y2="178.078" gradientUnits="userSpaceOnUse"><stop stop-color="#50E6FF"/><stop offset="1" stop-color="#50E6FF" stop-opacity="0"/></linearGradient><linearGradient id="paint13_linear" x1="134.679" y1="145.884" x2="134.679" y2="242.892" gradientUnits="userSpaceOnUse"><stop stop-color="#50E6FF"/><stop offset="1" stop-color="#50E6FF" stop-opacity="0"/></linearGradient><linearGradient id="paint14_linear" x1="222.896" y1="153.283" x2="222.896" y2="190.346" gradientUnits="userSpaceOnUse"><stop stop-color="#50E6FF"/><stop offset="1" stop-color="#50E6FF" stop-opacity="0"/></linearGradient><linearGradient id="paint15_linear" x1="183.184" y1="122.442" x2="183.184" y2="194.388" gradientUnits="userSpaceOnUse"><stop stop-color="#50E6FF"/><stop offset="1" stop-color="#50E6FF" stop-opacity="0"/></linearGradient><radialGradient id="paint0_radial" cx="0" cy="0" r="1" gradientUnits="userSpaceOnUse" gradientTransform="rotate(90 -36.876 75.384) scale(37.7499)"><stop offset=".755" stop-color="#1A1A1F"/><stop offset="1" stop-color="#1A1A1F" stop-opacity="0"/></radialGradient><radialGradient id="paint1_radial" cx="0" cy="0" r="1" gradientUnits="userSpaceOnUse" gradientTransform="rotate(90 63.456 109.492) scale(42.0862)"><stop offset=".755" stop-color="#1A1A1F"/><stop offset="1" stop-color="#1A1A1F" stop-opacity="0"/></radialGradient><radialGradient id="paint2_radial" cx="0" cy="0" r="1" gradientUnits="userSpaceOnUse" gradientTransform="rotate(90 92.954 214.456) scale(40.629)"><stop offset=".755" stop-color="#1A1A1F"/><stop offset="1" stop-color="#1A1A1F" stop-opacity="0"/></radialGradient><radialGradient id="paint3_radial" cx="0" cy="0" r="1" gradientUnits="userSpaceOnUse" gradientTransform="rotate(90 18.597 307.843) scale(48.5601)"><stop offset=".755" stop-color="#1A1A1F"/><stop offset="1" stop-color="#1A1A1F" stop-opacity="0"/></radialGradient><radialGradient id="paint4_radial" cx="0" cy="0" r="1" gradientUnits="userSpaceOnUse" gradientTransform="rotate(90 -89.634 262.65) scale(42.7668)"><stop offset=".755" stop-color="#1A1A1F"/><stop offset="1" stop-color="#1A1A1F" stop-opacity="0"/></radialGradient><radialGradient id="paint5_radial" cx="0" cy="0" r="1" gradientUnits="userSpaceOnUse" gradientTransform="rotate(90 -113.223 155.194) scale(37.2248)"><stop offset=".755" stop-color="#1A1A1F"/><stop offset="1" stop-color="#1A1A1F" stop-opacity="0"/></radialGradient><radialGradient id="paint11_radial" cx="0" cy="0" r="1" gradientUnits="userSpaceOnUse" gradientTransform="matrix(0 69.5639 -96.7849 0 174.6 190.327)"><stop offset=".755" stop-color="#1A1A1F"/><stop offset="1" stop-color="#1A1A1F" stop-opacity="0"/></radialGradient><filter id="filter0_d" x="19.227" y="19.813" width="310.017" height="352.47" filterUnits="userSpaceOnUse" color-interpolation-filters="sRGB"><feFlood flood-opacity="0" result="BackgroundImageFix"/><feColorMatrix in="SourceAlpha" values="0 0 0 0 0 0 0 0 0 0 0 0 0 0 0 0 0 0 127 0"/><feOffset/><feGaussianBlur stdDeviation="7.5"/><feColorMatrix values="0 0 0 0 0 0 0 0 0 0.470588 0 0 0 0 0.831373 0 0 0 0.38 0"/><feBlend in2="BackgroundImageFix" result="effect1_dropShadow"/><feBlend in="SourceGraphic" in2="effect1_dropShadow" result="shape"/></filter><filter id="filter1_d" x="71.305" y="107.572" width="206.567" height="150.069" filterUnits="userSpaceOnUse" color-interpolation-filters="sRGB"><feFlood flood-opacity="0" result="BackgroundImageFix"/><feColorMatrix in="SourceAlpha" values="0 0 0 0 0 0 0 0 0 0 0 0 0 0 0 0 0 0 127 0"/><feOffset/><feGaussianBlur stdDeviation="7.435"/><feColorMatrix values="0 0 0 0 0 0 0 0 0 0.470588 0 0 0 0 0.831373 0 0 0 0.3 0"/><feBlend in2="BackgroundImageFix" result="effect1_dropShadow"/><feBlend in="SourceGraphic" in2="effect1_dropShadow" result="shape"/></filter></defs></svg>