<svg data-name="Layer 1" xmlns="http://www.w3.org/2000/svg" width="120" height="120" viewBox="0 0 120 120"><path fill="none" stroke="#aab7b8" stroke-linejoin="round" stroke-width="2" d="M101.63 44.33l-4.55 14.89m-1.59-11.03l-5.27 2.92v.65l5.27 2.79m8.34-6.36l5.27 2.92v.65l-5.27 2.79"/><path d="M56.78 82.9h18a1.47 1.47 0 01.62.13l6.4 2.86a1.49 1.49 0 001.24 0L89.42 83a1.5 1.5 0 01.58-.1h27.42V37.72H89.74a1.44 1.44 0 00-.62.14L83 40.57a1.49 1.49 0 01-1.24 0l-6.1-2.71a1.44 1.44 0 00-.62-.14H56.78m25.62 2.7v45.17M45.75 49.66v13.52M17.91 92.62H2.45a1.25 1.25 0 01-1.25-1.25v-53.2a1.25 1.25 0 011.25-1.24h14.22a1.24 1.24 0 011.24 1.24M9.16 53.64v12.72m31.02 29.79a1.25 1.25 0 001.25 1.24h9.44a1.25 1.25 0 001.25-1.24V28.63a1.25 1.25 0 00-1.25-1.25h-9.44a1.25 1.25 0 00-1.25 1.25" fill="none" stroke="#aab7b8" stroke-linejoin="round" stroke-width="2"/><rect x="17.91" y="22.61" width="22.28" height="74.78" rx="1.24" fill="none" stroke="#aab7b8" stroke-linejoin="round" stroke-width="2"/><path fill="none" stroke="#aab7b8" stroke-linejoin="round" stroke-width="2" d="M1 45.68h16.52M1 50.45h16.78m23-17.5h11.13m-11.13 4.77h11.13M4.38 84.66h10.35m-10.2 3.18h10.2"/><rect x="25.86" y="36.13" width="6.36" height="19.09" rx="2" fill="none" stroke="#aab7b8" stroke-linejoin="round" stroke-width="2"/><path fill="none" stroke="#aab7b8" stroke-linejoin="round" stroke-width="2" d="M89.82 64.02h20.22m-20.22 6.74h20.22M57.45 50.54h17.53m-17.53 6.74h17.53m-17.53 6.74h17.53m-17.53 6.74h17.53"/></svg>